<?xml version="1.0" encoding="UTF-8" standalone="no"?>
<svg width="236.008mm" height="151.342mm"
 viewBox="0 0 669 429"
 xmlns="http://www.w3.org/2000/svg" xmlns:xlink="http://www.w3.org/1999/xlink"  version="1.2" baseProfile="tiny">
<title>Qt SVG Document</title>
<desc>MATLAB, The MathWorks, Inc. Version 25.1.0.2973910 R2025a Update 1</desc>
<defs>
</defs>
<g fill="none" stroke="black" stroke-width="1" fill-rule="evenodd" stroke-linecap="square" stroke-linejoin="bevel" >

<g fill="#000000" fill-opacity="1" stroke="none" transform="matrix(0.749437,0,0,0.749559,-63.701,-30.9809)"
font-family="Sans Serif" font-size="9" font-weight="400" font-style="normal" 
>
<path vector-effect="none" fill-rule="evenodd" d="M84,40 L977,40 L977,613 L84,613 L84,40"/>
</g>

<g fill="#121212" fill-opacity="1" stroke="none" transform="matrix(7.49437e-05,0,0,7.49559e-05,-63.701,-30.9809)"
font-family="Sans Serif" font-size="9" font-weight="400" font-style="normal" 
>
<path vector-effect="none" fill-rule="evenodd" d="M1.39e+06,490000 L1.39e+06,5.76e+06 L9.69e+06,5.76e+06 L9.69e+06,490000 L1.39e+06,490000"/>
</g>

<g fill="#d9d9d9" fill-opacity="1" stroke="none" transform="matrix(0.749437,0,0,0.749559,329.753,426.75)"
font-family="Sans Serif" font-size="9" font-weight="400" font-style="normal" 
>
<path vector-effect="none" fill-rule="evenodd" d="M1.29688,0 L1.29688,-9.625 L2.59375,-9.625 L2.59375,0 L1.29688,0 M7.65625,-0.0625 C7.25,0.0520833 6.83854,0.109375 6.42188,0.109375 C5.43229,0.109375 4.9375,-0.447917 4.9375,-1.5625 L4.9375,-6.5 L4.09375,-6.5 L4.09375,-7.39063 L4.98438,-7.39063 L5.35938,-9.04688 L6.17188,-9.04688 L6.17188,-7.39063 L7.54688,-7.39063 L7.54688,-6.5 L6.17188,-6.5 L6.17188,-1.82813 C6.17188,-1.47396 6.22917,-1.22656 6.34375,-1.08594 C6.45833,-0.945313 6.66146,-0.875 6.95313,-0.875 C7.11979,-0.875 7.35417,-0.90625 7.65625,-0.96875 L7.65625,-0.0625 M9.64063,-3.4375 C9.64063,-2.59375 9.8151,-1.9401 10.1641,-1.47656 C10.513,-1.01302 11.026,-0.78125 11.7031,-0.78125 C12.2344,-0.78125 12.6615,-0.888021 12.9844,-1.10156 C13.3073,-1.3151 13.526,-1.58854 13.6406,-1.92188 L14.7188,-1.60938 C14.2708,-0.442708 13.2656,0.140625 11.7031,0.140625 C10.6094,0.140625 9.77604,-0.184896 9.20313,-0.835938 C8.63021,-1.48698 8.34375,-2.45833 8.34375,-3.75 C8.34375,-4.96875 8.63021,-5.90365 9.20313,-6.55469 C9.77604,-7.20573 10.5938,-7.53125 11.6563,-7.53125 C13.8333,-7.53125 14.9219,-6.22396 14.9219,-3.60938 L14.9219,-3.4375 L9.64063,-3.4375 M13.6406,-4.375 C13.5781,-5.15625 13.3828,-5.72656 13.0547,-6.08594 C12.7266,-6.44531 12.2552,-6.625 11.6406,-6.625 C11.0365,-6.625 10.5599,-6.42448 10.2109,-6.02344 C9.86198,-5.6224 9.67708,-5.07292 9.65625,-4.375 L13.6406,-4.375 M16.5,0 L16.5,-5.67188 C16.5,-6.19271 16.4896,-6.76563 16.4688,-7.39063 L17.625,-7.39063 C17.6563,-6.55729 17.6719,-6.05729 17.6719,-5.89063 L17.7031,-5.89063 C17.901,-6.52604 18.1276,-6.95833 18.3828,-7.1875 C18.638,-7.41667 19,-7.53125 19.4688,-7.53125 C19.625,-7.53125 19.7917,-7.51042 19.9688,-7.46875 L19.9688,-6.34375 C19.8021,-6.38542 19.5833,-6.40625 19.3125,-6.40625 C18.8021,-6.40625 18.4115,-6.1875 18.1406,-5.75 C17.8698,-5.3125 17.7344,-4.68229 17.7344,-3.85938 L17.7344,0 L16.5,0 M23.0156,0.140625 C22.276,0.140625 21.7188,-0.0572917 21.3438,-0.453125 C20.9688,-0.848958 20.7813,-1.38542 20.7813,-2.0625 C20.7813,-2.83333 21.0339,-3.42188 21.5391,-3.82813 C22.0443,-4.23438 22.8542,-4.45313 23.9688,-4.48438 L25.6406,-4.51563 L25.6406,-4.92188 C25.6406,-5.51563 25.513,-5.94271 25.2578,-6.20313 C25.0026,-6.46354 24.599,-6.59375 24.0469,-6.59375 C23.4948,-6.59375 23.0938,-6.5 22.8438,-6.3125 C22.5938,-6.125 22.4427,-5.82813 22.3906,-5.42188 L21.1094,-5.53125 C21.3177,-6.86458 22.3073,-7.53125 24.0781,-7.53125 C25.0052,-7.53125 25.7031,-7.31771 26.1719,-6.89063 C26.6406,-6.46354 26.875,-5.84896 26.875,-5.04688 L26.875,-1.85938 C26.875,-1.49479 26.9245,-1.22135 27.0234,-1.03906 C27.1224,-0.856771 27.3073,-0.765625 27.5781,-0.765625 C27.6927,-0.765625 27.8229,-0.78125 27.9688,-0.8125 L27.9688,-0.046875 C27.6667,0.0260417 27.3542,0.0625 27.0313,0.0625 C26.5729,0.0625 26.2396,-0.0572917 26.0313,-0.296875 C25.8229,-0.536458 25.7031,-0.911458 25.6719,-1.42188 L25.6406,-1.42188 C25.3281,-0.848958 24.9609,-0.445313 24.5391,-0.210938 C24.1172,0.0234375 23.6094,0.140625 23.0156,0.140625 M23.2969,-0.78125 C23.7448,-0.78125 24.1458,-0.885417 24.5,-1.09375 C24.8542,-1.30208 25.1328,-1.58333 25.3359,-1.9375 C25.5391,-2.29167 25.6406,-2.66146 25.6406,-3.04688 L25.6406,-3.65625 L24.2969,-3.625 C23.7135,-3.61458 23.2734,-3.55469 22.9766,-3.44531 C22.6797,-3.33594 22.4505,-3.16667 22.2891,-2.9375 C22.1276,-2.70833 22.0469,-2.41146 22.0469,-2.04688 C22.0469,-1.64063 22.1563,-1.32813 22.375,-1.10938 C22.5938,-0.890625 22.901,-0.78125 23.2969,-0.78125 M31.75,-0.0625 C31.3438,0.0520833 30.9323,0.109375 30.5156,0.109375 C29.526,0.109375 29.0313,-0.447917 29.0313,-1.5625 L29.0313,-6.5 L28.1875,-6.5 L28.1875,-7.39063 L29.0781,-7.39063 L29.4531,-9.04688 L30.2656,-9.04688 L30.2656,-7.39063 L31.6406,-7.39063 L31.6406,-6.5 L30.2656,-6.5 L30.2656,-1.82813 C30.2656,-1.47396 30.3229,-1.22656 30.4375,-1.08594 C30.5521,-0.945313 30.7552,-0.875 31.0469,-0.875 C31.2135,-0.875 31.4479,-0.90625 31.75,-0.96875 L31.75,-0.0625 M32.7813,-8.96875 L32.7813,-10.1406 L34.0156,-10.1406 L34.0156,-8.96875 L32.7813,-8.96875 M32.7813,0 L32.7813,-7.39063 L34.0156,-7.39063 L34.0156,0 L32.7813,0 M42.1563,-3.70313 C42.1563,-2.41146 41.8698,-1.44792 41.2969,-0.8125 C40.724,-0.177083 39.8958,0.140625 38.8125,0.140625 C37.7396,0.140625 36.9271,-0.190104 36.375,-0.851563 C35.8229,-1.51302 35.5469,-2.46354 35.5469,-3.70313 C35.5469,-6.25521 36.651,-7.53125 38.8594,-7.53125 C39.9844,-7.53125 40.8151,-7.22135 41.3516,-6.60156 C41.888,-5.98177 42.1563,-5.01563 42.1563,-3.70313 M40.8594,-3.70313 C40.8594,-4.72396 40.7083,-5.46615 40.4063,-5.92969 C40.1042,-6.39323 39.5938,-6.625 38.875,-6.625 C38.1563,-6.625 37.6354,-6.38802 37.3125,-5.91406 C36.9896,-5.4401 36.8281,-4.70313 36.8281,-3.70313 C36.8281,-2.73438 36.987,-2.0026 37.3047,-1.50781 C37.6224,-1.01302 38.1198,-0.765625 38.7969,-0.765625 C39.5365,-0.765625 40.0651,-1.0026 40.3828,-1.47656 C40.7005,-1.95052 40.8594,-2.69271 40.8594,-3.70313 M48.375,0 L48.375,-4.6875 C48.375,-5.17708 48.3281,-5.55729 48.2344,-5.82813 C48.1406,-6.09896 47.987,-6.29167 47.7734,-6.40625 C47.5599,-6.52083 47.25,-6.57813 46.8438,-6.57813 C46.2604,-6.57813 45.7969,-6.375 45.4531,-5.96875 C45.1094,-5.5625 44.9375,-5 44.9375,-4.28125 L44.9375,0 L43.7031,0 L43.7031,-5.8125 C43.7031,-6.67708 43.6927,-7.20313 43.6719,-7.39063 L44.8281,-7.39063 C44.8281,-7.36979 44.8307,-7.3099 44.8359,-7.21094 C44.8411,-7.11198 44.849,-6.9974 44.8594,-6.86719 C44.8698,-6.73698 44.875,-6.48958 44.875,-6.125 L44.9063,-6.125 C45.1875,-6.63542 45.513,-6.9974 45.8828,-7.21094 C46.2526,-7.42448 46.7135,-7.53125 47.2656,-7.53125 C48.0781,-7.53125 48.6719,-7.33073 49.0469,-6.92969 C49.4219,-6.52865 49.6094,-5.85938 49.6094,-4.92188 L49.6094,0 L48.375,0 M57.0156,-2.04688 C57.0156,-1.34896 56.7526,-0.809896 56.2266,-0.429688 C55.7005,-0.0494792 54.9635,0.140625 54.0156,0.140625 C53.0885,0.140625 52.375,-0.0104167 51.875,-0.3125 C51.375,-0.614583 51.0521,-1.08854 50.9063,-1.73438 L52,-1.95313 C52.1042,-1.55729 52.3203,-1.26563 52.6484,-1.07813 C52.9766,-0.890625 53.4323,-0.796875 54.0156,-0.796875 C54.6406,-0.796875 55.0964,-0.893229 55.3828,-1.08594 C55.6693,-1.27865 55.8125,-1.56771 55.8125,-1.95313 C55.8125,-2.24479 55.7135,-2.48177 55.5156,-2.66406 C55.3177,-2.84635 54.9948,-2.99479 54.5469,-3.10938 L53.6563,-3.34375 C52.9479,-3.52083 52.4453,-3.69792 52.1484,-3.875 C51.8516,-4.05208 51.6198,-4.26563 51.4531,-4.51563 C51.2865,-4.76563 51.2031,-5.07292 51.2031,-5.4375 C51.2031,-6.11458 51.4427,-6.63021 51.9219,-6.98438 C52.401,-7.33854 53.099,-7.51563 54.0156,-7.51563 C54.8385,-7.51563 55.4896,-7.3724 55.9688,-7.08594 C56.4479,-6.79948 56.75,-6.33854 56.875,-5.70313 L55.7656,-5.5625 C55.7031,-5.89583 55.5234,-6.14844 55.2266,-6.32031 C54.9297,-6.49219 54.526,-6.57813 54.0156,-6.57813 C53.4635,-6.57813 53.0547,-6.49479 52.7891,-6.32813 C52.5234,-6.16146 52.3906,-5.90625 52.3906,-5.5625 C52.3906,-5.35417 52.4453,-5.18229 52.5547,-5.04688 C52.6641,-4.91146 52.8255,-4.79427 53.0391,-4.69531 C53.2526,-4.59635 53.7083,-4.46354 54.4063,-4.29688 C55.0521,-4.13021 55.5182,-3.97917 55.8047,-3.84375 C56.0911,-3.70833 56.3177,-3.55469 56.4844,-3.38281 C56.651,-3.21094 56.7813,-3.01563 56.875,-2.79688 C56.9688,-2.57813 57.0156,-2.32813 57.0156,-2.04688 "/>
</g>

<g fill="#d9d9d9" fill-opacity="1" stroke="#d9d9d9" stroke-opacity="1" stroke-width="0.666667" stroke-linecap="square" stroke-linejoin="round" transform="matrix(0.749437,0,0,0.749559,-63.701,-30.9809)"
font-family="Sans Serif" font-size="9" font-weight="400" font-style="normal" 
>
<polyline fill="none" vector-effect="none" points="139,576 969,576 " />
<polyline fill="none" vector-effect="none" points="139,49 969,49 " />
<polyline fill="none" vector-effect="none" points="180.5,576 180.5,567.7 " />
<polyline fill="none" vector-effect="none" points="180.5,57.3 180.5,49 " />
<polyline fill="none" vector-effect="none" points="263.5,576 263.5,567.7 " />
<polyline fill="none" vector-effect="none" points="263.5,57.3 263.5,49 " />
<polyline fill="none" vector-effect="none" points="346.5,576 346.5,567.7 " />
<polyline fill="none" vector-effect="none" points="346.5,57.3 346.5,49 " />
<polyline fill="none" vector-effect="none" points="429.5,576 429.5,567.7 " />
<polyline fill="none" vector-effect="none" points="429.5,57.3 429.5,49 " />
<polyline fill="none" vector-effect="none" points="512.5,576 512.5,567.7 " />
<polyline fill="none" vector-effect="none" points="512.5,57.3 512.5,49 " />
<polyline fill="none" vector-effect="none" points="595.5,576 595.5,567.7 " />
<polyline fill="none" vector-effect="none" points="595.5,57.3 595.5,49 " />
<polyline fill="none" vector-effect="none" points="678.5,576 678.5,567.7 " />
<polyline fill="none" vector-effect="none" points="678.5,57.3 678.5,49 " />
<polyline fill="none" vector-effect="none" points="761.5,576 761.5,567.7 " />
<polyline fill="none" vector-effect="none" points="761.5,57.3 761.5,49 " />
<polyline fill="none" vector-effect="none" points="844.5,576 844.5,567.7 " />
<polyline fill="none" vector-effect="none" points="844.5,57.3 844.5,49 " />
<polyline fill="none" vector-effect="none" points="927.5,576 927.5,567.7 " />
<polyline fill="none" vector-effect="none" points="927.5,57.3 927.5,49 " />
</g>

<g fill="#d9d9d9" fill-opacity="1" stroke="none" transform="matrix(0.749437,0,0,0.749559,68.9493,413.758)"
font-family="Sans Serif" font-size="9" font-weight="400" font-style="normal" 
>
<path vector-effect="none" fill-rule="evenodd" d="M0.65625,0 L0.65625,-0.8125 C0.875,-1.30208 1.13802,-1.73698 1.44531,-2.11719 C1.7526,-2.4974 2.07813,-2.84115 2.42188,-3.14844 C2.76563,-3.45573 3.10677,-3.73958 3.44531,-4 C3.78385,-4.26042 4.08854,-4.52344 4.35938,-4.78906 C4.63021,-5.05469 4.84896,-5.33073 5.01563,-5.61719 C5.18229,-5.90365 5.26563,-6.22917 5.26563,-6.59375 C5.26563,-7.08333 5.1224,-7.46354 4.83594,-7.73438 C4.54948,-8.00521 4.14583,-8.14063 3.625,-8.14063 C3.14583,-8.14063 2.7474,-8.00781 2.42969,-7.74219 C2.11198,-7.47656 1.92708,-7.10417 1.875,-6.625 L0.703125,-6.73438 C0.786458,-7.45313 1.09115,-8.02344 1.61719,-8.44531 C2.14323,-8.86719 2.8125,-9.07813 3.625,-9.07813 C4.53125,-9.07813 5.22656,-8.86458 5.71094,-8.4375 C6.19531,-8.01042 6.4375,-7.40625 6.4375,-6.625 C6.4375,-6.28125 6.35677,-5.9375 6.19531,-5.59375 C6.03385,-5.25 5.79688,-4.90625 5.48438,-4.5625 C5.17188,-4.21875 4.57292,-3.6875 3.6875,-2.96875 C3.20833,-2.57292 2.82292,-2.21615 2.53125,-1.89844 C2.23958,-1.58073 2.03125,-1.27083 1.90625,-0.96875 L6.57813,-0.96875 L6.57813,0 L0.65625,0"/>
</g>

<g fill="#d9d9d9" fill-opacity="1" stroke="none" transform="matrix(0.749437,0,0,0.749559,131.153,413.758)"
font-family="Sans Serif" font-size="9" font-weight="400" font-style="normal" 
>
<path vector-effect="none" fill-rule="evenodd" d="M5.59375,-2.03125 L5.59375,0 L4.51563,0 L4.51563,-2.03125 L0.296875,-2.03125 L0.296875,-2.90625 L4.39063,-8.9375 L5.59375,-8.9375 L5.59375,-2.92188 L6.84375,-2.92188 L6.84375,-2.03125 L5.59375,-2.03125 M4.51563,-7.65625 C4.50521,-7.63542 4.44531,-7.52344 4.33594,-7.32031 C4.22656,-7.11719 4.14583,-6.97917 4.09375,-6.90625 L1.79688,-3.51563 L1.45313,-3.04688 L1.35938,-2.92188 L4.51563,-2.92188 L4.51563,-7.65625"/>
</g>

<g fill="#d9d9d9" fill-opacity="1" stroke="none" transform="matrix(0.749437,0,0,0.749559,193.356,413.758)"
font-family="Sans Serif" font-size="9" font-weight="400" font-style="normal" 
>
<path vector-effect="none" fill-rule="evenodd" d="M6.65625,-2.92188 C6.65625,-1.98438 6.40104,-1.24219 5.89063,-0.695313 C5.38021,-0.148438 4.67188,0.125 3.76563,0.125 C2.76563,0.125 1.9974,-0.25 1.46094,-1 C0.924479,-1.75 0.65625,-2.83854 0.65625,-4.26563 C0.65625,-5.81771 0.934896,-7.00781 1.49219,-7.83594 C2.04948,-8.66406 2.83854,-9.07813 3.85938,-9.07813 C5.21354,-9.07813 6.0625,-8.46875 6.40625,-7.25 L5.3125,-7.0625 C5.09375,-7.79167 4.60417,-8.15625 3.84375,-8.15625 C3.19792,-8.15625 2.69531,-7.85156 2.33594,-7.24219 C1.97656,-6.63281 1.79688,-5.75521 1.79688,-4.60938 C2.00521,-4.99479 2.29688,-5.28646 2.67188,-5.48438 C3.04688,-5.68229 3.47917,-5.78125 3.96875,-5.78125 C4.79167,-5.78125 5.44531,-5.52344 5.92969,-5.00781 C6.41406,-4.49219 6.65625,-3.79688 6.65625,-2.92188 M5.5,-2.875 C5.5,-3.52083 5.34115,-4.02083 5.02344,-4.375 C4.70573,-4.72917 4.26042,-4.90625 3.6875,-4.90625 C3.15625,-4.90625 2.72656,-4.75 2.39844,-4.4375 C2.07031,-4.125 1.90625,-3.69792 1.90625,-3.15625 C1.90625,-2.45833 2.07813,-1.89063 2.42188,-1.45313 C2.76563,-1.01563 3.20313,-0.796875 3.73438,-0.796875 C4.28646,-0.796875 4.71875,-0.981771 5.03125,-1.35156 C5.34375,-1.72135 5.5,-2.22917 5.5,-2.875 "/>
</g>

<g fill="#d9d9d9" fill-opacity="1" stroke="none" transform="matrix(0.749437,0,0,0.749559,255.559,413.758)"
font-family="Sans Serif" font-size="9" font-weight="400" font-style="normal" 
>
<path vector-effect="none" fill-rule="evenodd" d="M6.67188,-2.5 C6.67188,-1.66667 6.40885,-1.02083 5.88281,-0.5625 C5.35677,-0.104167 4.60417,0.125 3.625,0.125 C2.66667,0.125 1.91667,-0.101563 1.375,-0.554688 C0.833333,-1.00781 0.5625,-1.65104 0.5625,-2.48438 C0.5625,-3.06771 0.729167,-3.55729 1.0625,-3.95313 C1.39583,-4.34896 1.82292,-4.58854 2.34375,-4.67188 L2.34375,-4.70313 C1.86458,-4.81771 1.48438,-5.0651 1.20313,-5.44531 C0.921875,-5.82552 0.78125,-6.27083 0.78125,-6.78125 C0.78125,-7.46875 1.03385,-8.02344 1.53906,-8.44531 C2.04427,-8.86719 2.72917,-9.07813 3.59375,-9.07813 C4.46875,-9.07813 5.16146,-8.86979 5.67188,-8.45313 C6.18229,-8.03646 6.4375,-7.47396 6.4375,-6.76563 C6.4375,-6.25521 6.29688,-5.8099 6.01563,-5.42969 C5.73438,-5.04948 5.34896,-4.8125 4.85938,-4.71875 L4.85938,-4.6875 C5.43229,-4.59375 5.8776,-4.35156 6.19531,-3.96094 C6.51302,-3.57031 6.67188,-3.08333 6.67188,-2.5 M5.25,-6.70313 C5.25,-7.72396 4.69792,-8.23438 3.59375,-8.23438 C3.05208,-8.23438 2.64063,-8.10677 2.35938,-7.85156 C2.07813,-7.59635 1.9375,-7.21354 1.9375,-6.70313 C1.9375,-6.19271 2.08333,-5.80469 2.375,-5.53906 C2.66667,-5.27344 3.07813,-5.14063 3.60938,-5.14063 C4.14063,-5.14063 4.54688,-5.26302 4.82813,-5.50781 C5.10938,-5.7526 5.25,-6.15104 5.25,-6.70313 M5.48438,-2.60938 C5.48438,-3.16146 5.31771,-3.57813 4.98438,-3.85938 C4.65104,-4.14063 4.1875,-4.28125 3.59375,-4.28125 C3.01042,-4.28125 2.55729,-4.13021 2.23438,-3.82813 C1.91146,-3.52604 1.75,-3.10938 1.75,-2.57813 C1.75,-1.34896 2.375,-0.734375 3.625,-0.734375 C4.25,-0.734375 4.71615,-0.882813 5.02344,-1.17969 C5.33073,-1.47656 5.48438,-1.95313 5.48438,-2.60938 "/>
</g>

<g fill="#d9d9d9" fill-opacity="1" stroke="none" transform="matrix(0.749437,0,0,0.749559,315.139,413.758)"
font-family="Sans Serif" font-size="9" font-weight="400" font-style="normal" 
>
<path vector-effect="none" fill-rule="evenodd" d="M0.984375,0 L0.984375,-0.96875 L3.26563,-0.96875 L3.26563,-7.85938 L1.25,-6.40625 L1.25,-7.48438 L3.35938,-8.9375 L4.42188,-8.9375 L4.42188,-0.96875 L6.59375,-0.96875 L6.59375,0 L0.984375,0 M13.9375,-4.46875 C13.9375,-2.97917 13.6745,-1.84115 13.1484,-1.05469 C12.6224,-0.268229 11.8438,0.125 10.8125,0.125 C9.79167,0.125 9.02344,-0.265625 8.50781,-1.04688 C7.99219,-1.82813 7.73438,-2.96875 7.73438,-4.46875 C7.73438,-6.01042 7.98438,-7.16406 8.48438,-7.92969 C8.98438,-8.69531 9.77604,-9.07813 10.8594,-9.07813 C11.9115,-9.07813 12.6875,-8.6901 13.1875,-7.91406 C13.6875,-7.13802 13.9375,-5.98958 13.9375,-4.46875 M12.7813,-4.46875 C12.7813,-5.76042 12.6328,-6.69792 12.3359,-7.28125 C12.0391,-7.86458 11.5469,-8.15625 10.8594,-8.15625 C10.151,-8.15625 9.64323,-7.86979 9.33594,-7.29688 C9.02865,-6.72396 8.875,-5.78125 8.875,-4.46875 C8.875,-3.20833 9.03125,-2.28385 9.34375,-1.69531 C9.65625,-1.10677 10.151,-0.8125 10.8281,-0.8125 C11.5052,-0.8125 12,-1.11198 12.3125,-1.71094 C12.625,-2.3099 12.7813,-3.22917 12.7813,-4.46875 "/>
</g>

<g fill="#d9d9d9" fill-opacity="1" stroke="none" transform="matrix(0.749437,0,0,0.749559,377.343,413.758)"
font-family="Sans Serif" font-size="9" font-weight="400" font-style="normal" 
>
<path vector-effect="none" fill-rule="evenodd" d="M0.984375,0 L0.984375,-0.96875 L3.26563,-0.96875 L3.26563,-7.85938 L1.25,-6.40625 L1.25,-7.48438 L3.35938,-8.9375 L4.42188,-8.9375 L4.42188,-0.96875 L6.59375,-0.96875 L6.59375,0 L0.984375,0 M7.875,0 L7.875,-0.8125 C8.09375,-1.30208 8.35677,-1.73698 8.66406,-2.11719 C8.97135,-2.4974 9.29688,-2.84115 9.64063,-3.14844 C9.98438,-3.45573 10.3255,-3.73958 10.6641,-4 C11.0026,-4.26042 11.3073,-4.52344 11.5781,-4.78906 C11.849,-5.05469 12.0677,-5.33073 12.2344,-5.61719 C12.401,-5.90365 12.4844,-6.22917 12.4844,-6.59375 C12.4844,-7.08333 12.3411,-7.46354 12.0547,-7.73438 C11.7682,-8.00521 11.3646,-8.14063 10.8438,-8.14063 C10.3646,-8.14063 9.96615,-8.00781 9.64844,-7.74219 C9.33073,-7.47656 9.14583,-7.10417 9.09375,-6.625 L7.92188,-6.73438 C8.00521,-7.45313 8.3099,-8.02344 8.83594,-8.44531 C9.36198,-8.86719 10.0313,-9.07813 10.8438,-9.07813 C11.75,-9.07813 12.4453,-8.86458 12.9297,-8.4375 C13.4141,-8.01042 13.6563,-7.40625 13.6563,-6.625 C13.6563,-6.28125 13.5755,-5.9375 13.4141,-5.59375 C13.2526,-5.25 13.0156,-4.90625 12.7031,-4.5625 C12.3906,-4.21875 11.7917,-3.6875 10.9063,-2.96875 C10.4271,-2.57292 10.0417,-2.21615 9.75,-1.89844 C9.45833,-1.58073 9.25,-1.27083 9.125,-0.96875 L13.7969,-0.96875 L13.7969,0 L7.875,0"/>
</g>

<g fill="#d9d9d9" fill-opacity="1" stroke="none" transform="matrix(0.749437,0,0,0.749559,439.546,413.758)"
font-family="Sans Serif" font-size="9" font-weight="400" font-style="normal" 
>
<path vector-effect="none" fill-rule="evenodd" d="M0.984375,0 L0.984375,-0.96875 L3.26563,-0.96875 L3.26563,-7.85938 L1.25,-6.40625 L1.25,-7.48438 L3.35938,-8.9375 L4.42188,-8.9375 L4.42188,-0.96875 L6.59375,-0.96875 L6.59375,0 L0.984375,0 M12.8125,-2.03125 L12.8125,0 L11.7344,0 L11.7344,-2.03125 L7.51563,-2.03125 L7.51563,-2.90625 L11.6094,-8.9375 L12.8125,-8.9375 L12.8125,-2.92188 L14.0625,-2.92188 L14.0625,-2.03125 L12.8125,-2.03125 M11.7344,-7.65625 C11.724,-7.63542 11.6641,-7.52344 11.5547,-7.32031 C11.4453,-7.11719 11.3646,-6.97917 11.3125,-6.90625 L9.01563,-3.51563 L8.67188,-3.04688 L8.57813,-2.92188 L11.7344,-2.92188 L11.7344,-7.65625"/>
</g>

<g fill="#d9d9d9" fill-opacity="1" stroke="none" transform="matrix(0.749437,0,0,0.749559,501.749,413.758)"
font-family="Sans Serif" font-size="9" font-weight="400" font-style="normal" 
>
<path vector-effect="none" fill-rule="evenodd" d="M0.984375,0 L0.984375,-0.96875 L3.26563,-0.96875 L3.26563,-7.85938 L1.25,-6.40625 L1.25,-7.48438 L3.35938,-8.9375 L4.42188,-8.9375 L4.42188,-0.96875 L6.59375,-0.96875 L6.59375,0 L0.984375,0 M13.875,-2.92188 C13.875,-1.98438 13.6198,-1.24219 13.1094,-0.695313 C12.599,-0.148438 11.8906,0.125 10.9844,0.125 C9.98438,0.125 9.21615,-0.25 8.67969,-1 C8.14323,-1.75 7.875,-2.83854 7.875,-4.26563 C7.875,-5.81771 8.15365,-7.00781 8.71094,-7.83594 C9.26823,-8.66406 10.0573,-9.07813 11.0781,-9.07813 C12.4323,-9.07813 13.2813,-8.46875 13.625,-7.25 L12.5313,-7.0625 C12.3125,-7.79167 11.8229,-8.15625 11.0625,-8.15625 C10.4167,-8.15625 9.91406,-7.85156 9.55469,-7.24219 C9.19531,-6.63281 9.01563,-5.75521 9.01563,-4.60938 C9.22396,-4.99479 9.51563,-5.28646 9.89063,-5.48438 C10.2656,-5.68229 10.6979,-5.78125 11.1875,-5.78125 C12.0104,-5.78125 12.6641,-5.52344 13.1484,-5.00781 C13.6328,-4.49219 13.875,-3.79688 13.875,-2.92188 M12.7188,-2.875 C12.7188,-3.52083 12.5599,-4.02083 12.2422,-4.375 C11.9245,-4.72917 11.4792,-4.90625 10.9063,-4.90625 C10.375,-4.90625 9.94531,-4.75 9.61719,-4.4375 C9.28906,-4.125 9.125,-3.69792 9.125,-3.15625 C9.125,-2.45833 9.29688,-1.89063 9.64063,-1.45313 C9.98438,-1.01563 10.4219,-0.796875 10.9531,-0.796875 C11.5052,-0.796875 11.9375,-0.981771 12.25,-1.35156 C12.5625,-1.72135 12.7188,-2.22917 12.7188,-2.875 "/>
</g>

<g fill="#d9d9d9" fill-opacity="1" stroke="none" transform="matrix(0.749437,0,0,0.749559,563.952,413.758)"
font-family="Sans Serif" font-size="9" font-weight="400" font-style="normal" 
>
<path vector-effect="none" fill-rule="evenodd" d="M0.984375,0 L0.984375,-0.96875 L3.26563,-0.96875 L3.26563,-7.85938 L1.25,-6.40625 L1.25,-7.48438 L3.35938,-8.9375 L4.42188,-8.9375 L4.42188,-0.96875 L6.59375,-0.96875 L6.59375,0 L0.984375,0 M13.8906,-2.5 C13.8906,-1.66667 13.6276,-1.02083 13.1016,-0.5625 C12.5755,-0.104167 11.8229,0.125 10.8438,0.125 C9.88542,0.125 9.13542,-0.101563 8.59375,-0.554688 C8.05208,-1.00781 7.78125,-1.65104 7.78125,-2.48438 C7.78125,-3.06771 7.94792,-3.55729 8.28125,-3.95313 C8.61458,-4.34896 9.04167,-4.58854 9.5625,-4.67188 L9.5625,-4.70313 C9.08333,-4.81771 8.70313,-5.0651 8.42188,-5.44531 C8.14063,-5.82552 8,-6.27083 8,-6.78125 C8,-7.46875 8.2526,-8.02344 8.75781,-8.44531 C9.26302,-8.86719 9.94792,-9.07813 10.8125,-9.07813 C11.6875,-9.07813 12.3802,-8.86979 12.8906,-8.45313 C13.401,-8.03646 13.6563,-7.47396 13.6563,-6.76563 C13.6563,-6.25521 13.5156,-5.8099 13.2344,-5.42969 C12.9531,-5.04948 12.5677,-4.8125 12.0781,-4.71875 L12.0781,-4.6875 C12.651,-4.59375 13.0964,-4.35156 13.4141,-3.96094 C13.7318,-3.57031 13.8906,-3.08333 13.8906,-2.5 M12.4688,-6.70313 C12.4688,-7.72396 11.9167,-8.23438 10.8125,-8.23438 C10.2708,-8.23438 9.85938,-8.10677 9.57813,-7.85156 C9.29688,-7.59635 9.15625,-7.21354 9.15625,-6.70313 C9.15625,-6.19271 9.30208,-5.80469 9.59375,-5.53906 C9.88542,-5.27344 10.2969,-5.14063 10.8281,-5.14063 C11.3594,-5.14063 11.7656,-5.26302 12.0469,-5.50781 C12.3281,-5.7526 12.4688,-6.15104 12.4688,-6.70313 M12.7031,-2.60938 C12.7031,-3.16146 12.5365,-3.57813 12.2031,-3.85938 C11.8698,-4.14063 11.4063,-4.28125 10.8125,-4.28125 C10.2292,-4.28125 9.77604,-4.13021 9.45313,-3.82813 C9.13021,-3.52604 8.96875,-3.10938 8.96875,-2.57813 C8.96875,-1.34896 9.59375,-0.734375 10.8438,-0.734375 C11.4688,-0.734375 11.9349,-0.882813 12.2422,-1.17969 C12.5495,-1.47656 12.7031,-1.95313 12.7031,-2.60938 "/>
</g>

<g fill="#d9d9d9" fill-opacity="1" stroke="none" transform="matrix(0.749437,0,0,0.749559,626.156,413.758)"
font-family="Sans Serif" font-size="9" font-weight="400" font-style="normal" 
>
<path vector-effect="none" fill-rule="evenodd" d="M0.65625,0 L0.65625,-0.8125 C0.875,-1.30208 1.13802,-1.73698 1.44531,-2.11719 C1.7526,-2.4974 2.07813,-2.84115 2.42188,-3.14844 C2.76563,-3.45573 3.10677,-3.73958 3.44531,-4 C3.78385,-4.26042 4.08854,-4.52344 4.35938,-4.78906 C4.63021,-5.05469 4.84896,-5.33073 5.01563,-5.61719 C5.18229,-5.90365 5.26563,-6.22917 5.26563,-6.59375 C5.26563,-7.08333 5.1224,-7.46354 4.83594,-7.73438 C4.54948,-8.00521 4.14583,-8.14063 3.625,-8.14063 C3.14583,-8.14063 2.7474,-8.00781 2.42969,-7.74219 C2.11198,-7.47656 1.92708,-7.10417 1.875,-6.625 L0.703125,-6.73438 C0.786458,-7.45313 1.09115,-8.02344 1.61719,-8.44531 C2.14323,-8.86719 2.8125,-9.07813 3.625,-9.07813 C4.53125,-9.07813 5.22656,-8.86458 5.71094,-8.4375 C6.19531,-8.01042 6.4375,-7.40625 6.4375,-6.625 C6.4375,-6.28125 6.35677,-5.9375 6.19531,-5.59375 C6.03385,-5.25 5.79688,-4.90625 5.48438,-4.5625 C5.17188,-4.21875 4.57292,-3.6875 3.6875,-2.96875 C3.20833,-2.57292 2.82292,-2.21615 2.53125,-1.89844 C2.23958,-1.58073 2.03125,-1.27083 1.90625,-0.96875 L6.57813,-0.96875 L6.57813,0 L0.65625,0 M13.9375,-4.46875 C13.9375,-2.97917 13.6745,-1.84115 13.1484,-1.05469 C12.6224,-0.268229 11.8438,0.125 10.8125,0.125 C9.79167,0.125 9.02344,-0.265625 8.50781,-1.04688 C7.99219,-1.82813 7.73438,-2.96875 7.73438,-4.46875 C7.73438,-6.01042 7.98438,-7.16406 8.48438,-7.92969 C8.98438,-8.69531 9.77604,-9.07813 10.8594,-9.07813 C11.9115,-9.07813 12.6875,-8.6901 13.1875,-7.91406 C13.6875,-7.13802 13.9375,-5.98958 13.9375,-4.46875 M12.7813,-4.46875 C12.7813,-5.76042 12.6328,-6.69792 12.3359,-7.28125 C12.0391,-7.86458 11.5469,-8.15625 10.8594,-8.15625 C10.151,-8.15625 9.64323,-7.86979 9.33594,-7.29688 C9.02865,-6.72396 8.875,-5.78125 8.875,-4.46875 C8.875,-3.20833 9.03125,-2.28385 9.34375,-1.69531 C9.65625,-1.10677 10.151,-0.8125 10.8281,-0.8125 C11.5052,-0.8125 12,-1.11198 12.3125,-1.71094 C12.625,-2.3099 12.7813,-3.22917 12.7813,-4.46875 "/>
</g>

<g fill="#d9d9d9" fill-opacity="1" stroke="none" transform="matrix(0,-0.749559,0.749437,0,8.99437,208.878)"
font-family="Sans Serif" font-size="9" font-weight="400" font-style="normal" 
>
<path vector-effect="none" fill-rule="evenodd" d="M0.375,2.71875 C0.34375,2.71875 0.317708,2.70313 0.296875,2.67188 C0.276042,2.64063 0.265625,2.60938 0.265625,2.57813 L2.42188,-6.07813 C2.54688,-6.54688 2.72656,-7 2.96094,-7.4375 C3.19531,-7.875 3.49219,-8.28125 3.85156,-8.65625 C4.21094,-9.03125 4.60417,-9.32813 5.03125,-9.54688 C5.45833,-9.76563 5.91667,-9.875 6.40625,-9.875 C6.75,-9.875 7.0625,-9.79688 7.34375,-9.64063 C7.625,-9.48438 7.84635,-9.27083 8.00781,-9 C8.16927,-8.72917 8.25,-8.41667 8.25,-8.0625 C8.25,-7.72917 8.1849,-7.41146 8.05469,-7.10938 C7.92448,-6.80729 7.74479,-6.52604 7.51563,-6.26563 C7.28646,-6.00521 7.04167,-5.79167 6.78125,-5.625 C6.9375,-5.53125 7.07552,-5.40885 7.19531,-5.25781 C7.3151,-5.10677 7.41146,-4.95052 7.48438,-4.78906 C7.55729,-4.6276 7.61458,-4.44792 7.65625,-4.25 C7.69792,-4.05208 7.71875,-3.86979 7.71875,-3.70313 C7.71875,-3.22396 7.61458,-2.7526 7.40625,-2.28906 C7.19792,-1.82552 6.91667,-1.40365 6.5625,-1.02344 C6.20833,-0.643229 5.80469,-0.341146 5.35156,-0.117188 C4.89844,0.106771 4.43229,0.21875 3.95313,0.21875 C3.43229,0.21875 2.96094,0.0755208 2.53906,-0.210938 C2.11719,-0.497396 1.82813,-0.885417 1.67188,-1.375 L0.65625,2.625 C0.65625,2.6875 0.619792,2.71875 0.546875,2.71875 L0.375,2.71875 M3.98438,-0.171875 C4.40104,-0.171875 4.77865,-0.309896 5.11719,-0.585938 C5.45573,-0.861979 5.73698,-1.20833 5.96094,-1.625 C6.1849,-2.04167 6.35417,-2.48177 6.46875,-2.94531 C6.58333,-3.40885 6.64063,-3.83333 6.64063,-4.21875 C6.64063,-4.69792 6.50521,-5.07292 6.23438,-5.34375 C5.91146,-5.22917 5.59896,-5.17188 5.29688,-5.17188 C4.55729,-5.17188 4.1875,-5.29688 4.1875,-5.54688 C4.1875,-5.86979 4.60938,-6.03125 5.45313,-6.03125 C5.75521,-6.03125 6.03125,-5.98438 6.28125,-5.89063 C6.47917,-6.04688 6.65885,-6.27604 6.82031,-6.57813 C6.98177,-6.88021 7.10677,-7.19531 7.19531,-7.52344 C7.28385,-7.85156 7.32813,-8.15625 7.32813,-8.4375 C7.32813,-8.75 7.2474,-9.00781 7.08594,-9.21094 C6.92448,-9.41406 6.6875,-9.51563 6.375,-9.51563 C5.80208,-9.51563 5.27083,-9.33854 4.78125,-8.98438 C4.29167,-8.63021 3.8776,-8.1849 3.53906,-7.64844 C3.20052,-7.11198 2.95833,-6.5625 2.8125,-6 L2.04688,-2.89063 C1.99479,-2.68229 1.96354,-2.44271 1.95313,-2.17188 C1.95313,-1.58854 2.14323,-1.10938 2.52344,-0.734375 C2.90365,-0.359375 3.39063,-0.171875 3.98438,-0.171875 M4.60938,-5.57813 C4.74479,-5.54688 4.97917,-5.53125 5.3125,-5.53125 C5.46875,-5.53125 5.625,-5.55729 5.78125,-5.60938 C5.77083,-5.61979 5.75521,-5.625 5.73438,-5.625 C5.63021,-5.65625 5.52083,-5.67188 5.40625,-5.67188 C4.97917,-5.67188 4.71354,-5.64063 4.60938,-5.57813 "/>
</g>

<g fill="#d9d9d9" fill-opacity="1" stroke="none" transform="matrix(0,-0.749559,0.749437,0,14.2404,202.882)"
font-family="Sans Serif" font-size="9" font-weight="400" font-style="normal" 
>
<path vector-effect="none" fill-rule="evenodd" d="M0.84375,0 L0.84375,-0.828125 L2.76563,-0.828125 L2.76563,-6.64063 L1.0625,-5.42188 L1.0625,-6.34375 L2.84375,-7.5625 L3.73438,-7.5625 L3.73438,-0.828125 L5.57813,-0.828125 L5.57813,0 L0.84375,0"/>
</g>

<g fill="#d9d9d9" fill-opacity="1" stroke="#d9d9d9" stroke-opacity="1" stroke-width="0.666667" stroke-linecap="square" stroke-linejoin="round" transform="matrix(0.749437,0,0,0.749559,-63.701,-30.9809)"
font-family="Sans Serif" font-size="9" font-weight="400" font-style="normal" 
>
<polyline fill="none" vector-effect="none" points="139,576 139,49 " />
<polyline fill="none" vector-effect="none" points="969,576 969,49 " />
<polyline fill="none" vector-effect="none" points="139,561.361 147.3,561.361 " />
<polyline fill="none" vector-effect="none" points="960.7,561.361 969,561.361 " />
<polyline fill="none" vector-effect="none" points="139,488.167 147.3,488.167 " />
<polyline fill="none" vector-effect="none" points="960.7,488.167 969,488.167 " />
<polyline fill="none" vector-effect="none" points="139,414.972 147.3,414.972 " />
<polyline fill="none" vector-effect="none" points="960.7,414.972 969,414.972 " />
<polyline fill="none" vector-effect="none" points="139,341.778 147.3,341.778 " />
<polyline fill="none" vector-effect="none" points="960.7,341.778 969,341.778 " />
<polyline fill="none" vector-effect="none" points="139,268.583 147.3,268.583 " />
<polyline fill="none" vector-effect="none" points="960.7,268.583 969,268.583 " />
<polyline fill="none" vector-effect="none" points="139,195.389 147.3,195.389 " />
<polyline fill="none" vector-effect="none" points="960.7,195.389 969,195.389 " />
<polyline fill="none" vector-effect="none" points="139,122.194 147.3,122.194 " />
<polyline fill="none" vector-effect="none" points="960.7,122.194 969,122.194 " />
<polyline fill="none" vector-effect="none" points="139,49 147.3,49 " />
<polyline fill="none" vector-effect="none" points="960.7,49 969,49 " />
</g>

<g fill="#d9d9d9" fill-opacity="1" stroke="none" transform="matrix(0.749437,0,0,0.749559,19.9861,393.166)"
font-family="Sans Serif" font-size="9" font-weight="400" font-style="normal" 
>
<path vector-effect="none" fill-rule="evenodd" d="M0.578125,-2.95313 L0.578125,-3.96875 L3.75,-3.96875 L3.75,-2.95313 L0.578125,-2.95313 M5.3125,0 L5.3125,-0.96875 L7.59375,-0.96875 L7.59375,-7.85938 L5.57813,-6.40625 L5.57813,-7.48438 L7.6875,-8.9375 L8.75,-8.9375 L8.75,-0.96875 L10.9219,-0.96875 L10.9219,0 L5.3125,0 M12.7344,0 L12.7344,-1.39063 L13.9688,-1.39063 L13.9688,0 L12.7344,0 M21.8438,-2.90625 C21.8438,-1.96875 21.5625,-1.22917 21,-0.6875 C20.4375,-0.145833 19.6615,0.125 18.6719,0.125 C17.8385,0.125 17.1641,-0.0572917 16.6484,-0.421875 C16.1328,-0.786458 15.8073,-1.3125 15.6719,-2 L16.8281,-2.14063 C17.0677,-1.25521 17.6875,-0.8125 18.6875,-0.8125 C19.3021,-0.8125 19.7839,-0.997396 20.1328,-1.36719 C20.4818,-1.73698 20.6563,-2.24479 20.6563,-2.89063 C20.6563,-3.45313 20.4818,-3.90885 20.1328,-4.25781 C19.7839,-4.60677 19.3125,-4.78125 18.7188,-4.78125 C18.4063,-4.78125 18.1172,-4.73177 17.8516,-4.63281 C17.5859,-4.53385 17.3177,-4.36458 17.0469,-4.125 L15.9375,-4.125 L16.2344,-8.9375 L21.3125,-8.9375 L21.3125,-7.96875 L17.2813,-7.96875 L17.1094,-5.14063 C17.599,-5.51563 18.2135,-5.70313 18.9531,-5.70313 C19.8281,-5.70313 20.5286,-5.44531 21.0547,-4.92969 C21.5807,-4.41406 21.8438,-3.73958 21.8438,-2.90625 "/>
</g>

<g fill="#d9d9d9" fill-opacity="1" stroke="none" transform="matrix(0.749437,0,0,0.749559,27.4805,338.302)"
font-family="Sans Serif" font-size="9" font-weight="400" font-style="normal" 
>
<path vector-effect="none" fill-rule="evenodd" d="M0.578125,-2.95313 L0.578125,-3.96875 L3.75,-3.96875 L3.75,-2.95313 L0.578125,-2.95313 M5.3125,0 L5.3125,-0.96875 L7.59375,-0.96875 L7.59375,-7.85938 L5.57813,-6.40625 L5.57813,-7.48438 L7.6875,-8.9375 L8.75,-8.9375 L8.75,-0.96875 L10.9219,-0.96875 L10.9219,0 L5.3125,0"/>
</g>

<g fill="#d9d9d9" fill-opacity="1" stroke="none" transform="matrix(0.749437,0,0,0.749559,19.9861,283.438)"
font-family="Sans Serif" font-size="9" font-weight="400" font-style="normal" 
>
<path vector-effect="none" fill-rule="evenodd" d="M0.578125,-2.95313 L0.578125,-3.96875 L3.75,-3.96875 L3.75,-2.95313 L0.578125,-2.95313 M11.0469,-4.46875 C11.0469,-2.97917 10.7839,-1.84115 10.2578,-1.05469 C9.73177,-0.268229 8.95313,0.125 7.92188,0.125 C6.90104,0.125 6.13281,-0.265625 5.61719,-1.04688 C5.10156,-1.82813 4.84375,-2.96875 4.84375,-4.46875 C4.84375,-6.01042 5.09375,-7.16406 5.59375,-7.92969 C6.09375,-8.69531 6.88542,-9.07813 7.96875,-9.07813 C9.02083,-9.07813 9.79688,-8.6901 10.2969,-7.91406 C10.7969,-7.13802 11.0469,-5.98958 11.0469,-4.46875 M9.89063,-4.46875 C9.89063,-5.76042 9.74219,-6.69792 9.44531,-7.28125 C9.14844,-7.86458 8.65625,-8.15625 7.96875,-8.15625 C7.26042,-8.15625 6.7526,-7.86979 6.44531,-7.29688 C6.13802,-6.72396 5.98438,-5.78125 5.98438,-4.46875 C5.98438,-3.20833 6.14063,-2.28385 6.45313,-1.69531 C6.76563,-1.10677 7.26042,-0.8125 7.9375,-0.8125 C8.61458,-0.8125 9.10938,-1.11198 9.42188,-1.71094 C9.73438,-2.3099 9.89063,-3.22917 9.89063,-4.46875 M12.7344,0 L12.7344,-1.39063 L13.9688,-1.39063 L13.9688,0 L12.7344,0 M21.8438,-2.90625 C21.8438,-1.96875 21.5625,-1.22917 21,-0.6875 C20.4375,-0.145833 19.6615,0.125 18.6719,0.125 C17.8385,0.125 17.1641,-0.0572917 16.6484,-0.421875 C16.1328,-0.786458 15.8073,-1.3125 15.6719,-2 L16.8281,-2.14063 C17.0677,-1.25521 17.6875,-0.8125 18.6875,-0.8125 C19.3021,-0.8125 19.7839,-0.997396 20.1328,-1.36719 C20.4818,-1.73698 20.6563,-2.24479 20.6563,-2.89063 C20.6563,-3.45313 20.4818,-3.90885 20.1328,-4.25781 C19.7839,-4.60677 19.3125,-4.78125 18.7188,-4.78125 C18.4063,-4.78125 18.1172,-4.73177 17.8516,-4.63281 C17.5859,-4.53385 17.3177,-4.36458 17.0469,-4.125 L15.9375,-4.125 L16.2344,-8.9375 L21.3125,-8.9375 L21.3125,-7.96875 L17.2813,-7.96875 L17.1094,-5.14063 C17.599,-5.51563 18.2135,-5.70313 18.9531,-5.70313 C19.8281,-5.70313 20.5286,-5.44531 21.0547,-4.92969 C21.5807,-4.41406 21.8438,-3.73958 21.8438,-2.90625 "/>
</g>

<g fill="#d9d9d9" fill-opacity="1" stroke="none" transform="matrix(0.749437,0,0,0.749559,31.2277,228.575)"
font-family="Sans Serif" font-size="9" font-weight="400" font-style="normal" 
>
<path vector-effect="none" fill-rule="evenodd" d="M6.71875,-4.46875 C6.71875,-2.97917 6.45573,-1.84115 5.92969,-1.05469 C5.40365,-0.268229 4.625,0.125 3.59375,0.125 C2.57292,0.125 1.80469,-0.265625 1.28906,-1.04688 C0.773438,-1.82813 0.515625,-2.96875 0.515625,-4.46875 C0.515625,-6.01042 0.765625,-7.16406 1.26563,-7.92969 C1.76563,-8.69531 2.55729,-9.07813 3.64063,-9.07813 C4.69271,-9.07813 5.46875,-8.6901 5.96875,-7.91406 C6.46875,-7.13802 6.71875,-5.98958 6.71875,-4.46875 M5.5625,-4.46875 C5.5625,-5.76042 5.41406,-6.69792 5.11719,-7.28125 C4.82031,-7.86458 4.32813,-8.15625 3.64063,-8.15625 C2.93229,-8.15625 2.42448,-7.86979 2.11719,-7.29688 C1.8099,-6.72396 1.65625,-5.78125 1.65625,-4.46875 C1.65625,-3.20833 1.8125,-2.28385 2.125,-1.69531 C2.4375,-1.10677 2.93229,-0.8125 3.60938,-0.8125 C4.28646,-0.8125 4.78125,-1.11198 5.09375,-1.71094 C5.40625,-2.3099 5.5625,-3.22917 5.5625,-4.46875 "/>
</g>

<g fill="#d9d9d9" fill-opacity="1" stroke="none" transform="matrix(0.749437,0,0,0.749559,22.9839,173.711)"
font-family="Sans Serif" font-size="9" font-weight="400" font-style="normal" 
>
<path vector-effect="none" fill-rule="evenodd" d="M6.71875,-4.46875 C6.71875,-2.97917 6.45573,-1.84115 5.92969,-1.05469 C5.40365,-0.268229 4.625,0.125 3.59375,0.125 C2.57292,0.125 1.80469,-0.265625 1.28906,-1.04688 C0.773438,-1.82813 0.515625,-2.96875 0.515625,-4.46875 C0.515625,-6.01042 0.765625,-7.16406 1.26563,-7.92969 C1.76563,-8.69531 2.55729,-9.07813 3.64063,-9.07813 C4.69271,-9.07813 5.46875,-8.6901 5.96875,-7.91406 C6.46875,-7.13802 6.71875,-5.98958 6.71875,-4.46875 M5.5625,-4.46875 C5.5625,-5.76042 5.41406,-6.69792 5.11719,-7.28125 C4.82031,-7.86458 4.32813,-8.15625 3.64063,-8.15625 C2.93229,-8.15625 2.42448,-7.86979 2.11719,-7.29688 C1.8099,-6.72396 1.65625,-5.78125 1.65625,-4.46875 C1.65625,-3.20833 1.8125,-2.28385 2.125,-1.69531 C2.4375,-1.10677 2.93229,-0.8125 3.60938,-0.8125 C4.28646,-0.8125 4.78125,-1.11198 5.09375,-1.71094 C5.40625,-2.3099 5.5625,-3.22917 5.5625,-4.46875 M8.40625,0 L8.40625,-1.39063 L9.64063,-1.39063 L9.64063,0 L8.40625,0 M17.5156,-2.90625 C17.5156,-1.96875 17.2344,-1.22917 16.6719,-0.6875 C16.1094,-0.145833 15.3333,0.125 14.3438,0.125 C13.5104,0.125 12.8359,-0.0572917 12.3203,-0.421875 C11.8047,-0.786458 11.4792,-1.3125 11.3438,-2 L12.5,-2.14063 C12.7396,-1.25521 13.3594,-0.8125 14.3594,-0.8125 C14.974,-0.8125 15.4557,-0.997396 15.8047,-1.36719 C16.1536,-1.73698 16.3281,-2.24479 16.3281,-2.89063 C16.3281,-3.45313 16.1536,-3.90885 15.8047,-4.25781 C15.4557,-4.60677 14.9844,-4.78125 14.3906,-4.78125 C14.0781,-4.78125 13.7891,-4.73177 13.5234,-4.63281 C13.2578,-4.53385 12.9896,-4.36458 12.7188,-4.125 L11.6094,-4.125 L11.9063,-8.9375 L16.9844,-8.9375 L16.9844,-7.96875 L12.9531,-7.96875 L12.7813,-5.14063 C13.2708,-5.51563 13.8854,-5.70313 14.625,-5.70313 C15.5,-5.70313 16.2005,-5.44531 16.7266,-4.92969 C17.2526,-4.41406 17.5156,-3.73958 17.5156,-2.90625 "/>
</g>

<g fill="#d9d9d9" fill-opacity="1" stroke="none" transform="matrix(0.749437,0,0,0.749559,31.2277,118.848)"
font-family="Sans Serif" font-size="9" font-weight="400" font-style="normal" 
>
<path vector-effect="none" fill-rule="evenodd" d="M0.984375,0 L0.984375,-0.96875 L3.26563,-0.96875 L3.26563,-7.85938 L1.25,-6.40625 L1.25,-7.48438 L3.35938,-8.9375 L4.42188,-8.9375 L4.42188,-0.96875 L6.59375,-0.96875 L6.59375,0 L0.984375,0"/>
</g>

<g fill="#d9d9d9" fill-opacity="1" stroke="none" transform="matrix(0.749437,0,0,0.749559,22.9839,63.9841)"
font-family="Sans Serif" font-size="9" font-weight="400" font-style="normal" 
>
<path vector-effect="none" fill-rule="evenodd" d="M0.984375,0 L0.984375,-0.96875 L3.26563,-0.96875 L3.26563,-7.85938 L1.25,-6.40625 L1.25,-7.48438 L3.35938,-8.9375 L4.42188,-8.9375 L4.42188,-0.96875 L6.59375,-0.96875 L6.59375,0 L0.984375,0 M8.40625,0 L8.40625,-1.39063 L9.64063,-1.39063 L9.64063,0 L8.40625,0 M17.5156,-2.90625 C17.5156,-1.96875 17.2344,-1.22917 16.6719,-0.6875 C16.1094,-0.145833 15.3333,0.125 14.3438,0.125 C13.5104,0.125 12.8359,-0.0572917 12.3203,-0.421875 C11.8047,-0.786458 11.4792,-1.3125 11.3438,-2 L12.5,-2.14063 C12.7396,-1.25521 13.3594,-0.8125 14.3594,-0.8125 C14.974,-0.8125 15.4557,-0.997396 15.8047,-1.36719 C16.1536,-1.73698 16.3281,-2.24479 16.3281,-2.89063 C16.3281,-3.45313 16.1536,-3.90885 15.8047,-4.25781 C15.4557,-4.60677 14.9844,-4.78125 14.3906,-4.78125 C14.0781,-4.78125 13.7891,-4.73177 13.5234,-4.63281 C13.2578,-4.53385 12.9896,-4.36458 12.7188,-4.125 L11.6094,-4.125 L11.9063,-8.9375 L16.9844,-8.9375 L16.9844,-7.96875 L12.9531,-7.96875 L12.7813,-5.14063 C13.2708,-5.51563 13.8854,-5.70313 14.625,-5.70313 C15.5,-5.70313 16.2005,-5.44531 16.7266,-4.92969 C17.2526,-4.41406 17.5156,-3.73958 17.5156,-2.90625 "/>
</g>

<g fill="#d9d9d9" fill-opacity="1" stroke="none" transform="matrix(0.749437,0,0,0.749559,31.2277,9.12052)"
font-family="Sans Serif" font-size="9" font-weight="400" font-style="normal" 
>
<path vector-effect="none" fill-rule="evenodd" d="M0.65625,0 L0.65625,-0.8125 C0.875,-1.30208 1.13802,-1.73698 1.44531,-2.11719 C1.7526,-2.4974 2.07813,-2.84115 2.42188,-3.14844 C2.76563,-3.45573 3.10677,-3.73958 3.44531,-4 C3.78385,-4.26042 4.08854,-4.52344 4.35938,-4.78906 C4.63021,-5.05469 4.84896,-5.33073 5.01563,-5.61719 C5.18229,-5.90365 5.26563,-6.22917 5.26563,-6.59375 C5.26563,-7.08333 5.1224,-7.46354 4.83594,-7.73438 C4.54948,-8.00521 4.14583,-8.14063 3.625,-8.14063 C3.14583,-8.14063 2.7474,-8.00781 2.42969,-7.74219 C2.11198,-7.47656 1.92708,-7.10417 1.875,-6.625 L0.703125,-6.73438 C0.786458,-7.45313 1.09115,-8.02344 1.61719,-8.44531 C2.14323,-8.86719 2.8125,-9.07813 3.625,-9.07813 C4.53125,-9.07813 5.22656,-8.86458 5.71094,-8.4375 C6.19531,-8.01042 6.4375,-7.40625 6.4375,-6.625 C6.4375,-6.28125 6.35677,-5.9375 6.19531,-5.59375 C6.03385,-5.25 5.79688,-4.90625 5.48438,-4.5625 C5.17188,-4.21875 4.57292,-3.6875 3.6875,-2.96875 C3.20833,-2.57292 2.82292,-2.21615 2.53125,-1.89844 C2.23958,-1.58073 2.03125,-1.27083 1.90625,-0.96875 L6.57813,-0.96875 L6.57813,0 L0.65625,0"/>
</g>

<g fill="none" stroke="#ff0000" stroke-opacity="1" stroke-dasharray="12,12" stroke-dashoffset="0" stroke-width="3.33333" stroke-linecap="butt" stroke-linejoin="round" transform="matrix(0.749437,0,0,0.749559,-63.701,-30.9809)"
font-family="Sans Serif" font-size="9" font-weight="400" font-style="normal" 
>
<polyline fill="none" vector-effect="none" points="139,49 180.5,140.127 222,216.981 263.5,255.042 305,309.938 346.5,357.881 388,395.21 429.5,423.756 471,447.91 512.5,467.672 554,481.945 595.5,497.316 637,508.295 678.5,514.883 720,528.424 761.5,535.011 803,531.717 844.5,532.083 886,532.449 927.5,532.815 969,529.156 " />
</g>

<g fill="none" stroke="#ff0000" stroke-opacity="1" stroke-width="3.33333" stroke-linecap="butt" stroke-linejoin="miter" stroke-miterlimit="2" transform="matrix(0.749437,0,0,0.749559,-63.701,-30.9809)"
font-family="Sans Serif" font-size="9" font-weight="400" font-style="normal" 
>
<path vector-effect="none" fill-rule="evenodd" d="M143,49 C143,46.7909 141.209,45 139,45 C136.791,45 135,46.7909 135,49 C135,51.2091 136.791,53 139,53 C141.209,53 143,51.2091 143,49 "/>
<path vector-effect="none" fill-rule="evenodd" d="M184.5,140.127 C184.5,137.918 182.709,136.127 180.5,136.127 C178.291,136.127 176.5,137.918 176.5,140.127 C176.5,142.336 178.291,144.127 180.5,144.127 C182.709,144.127 184.5,142.336 184.5,140.127 "/>
<path vector-effect="none" fill-rule="evenodd" d="M226,216.981 C226,214.772 224.209,212.981 222,212.981 C219.791,212.981 218,214.772 218,216.981 C218,219.19 219.791,220.981 222,220.981 C224.209,220.981 226,219.19 226,216.981 "/>
<path vector-effect="none" fill-rule="evenodd" d="M267.5,255.042 C267.5,252.833 265.709,251.042 263.5,251.042 C261.291,251.042 259.5,252.833 259.5,255.042 C259.5,257.251 261.291,259.042 263.5,259.042 C265.709,259.042 267.5,257.251 267.5,255.042 "/>
<path vector-effect="none" fill-rule="evenodd" d="M309,309.938 C309,307.729 307.209,305.938 305,305.938 C302.791,305.938 301,307.729 301,309.938 C301,312.147 302.791,313.938 305,313.938 C307.209,313.938 309,312.147 309,309.938 "/>
<path vector-effect="none" fill-rule="evenodd" d="M350.5,357.881 C350.5,355.671 348.709,353.881 346.5,353.881 C344.291,353.881 342.5,355.671 342.5,357.881 C342.5,360.09 344.291,361.881 346.5,361.881 C348.709,361.881 350.5,360.09 350.5,357.881 "/>
<path vector-effect="none" fill-rule="evenodd" d="M392,395.21 C392,393.001 390.209,391.21 388,391.21 C385.791,391.21 384,393.001 384,395.21 C384,397.419 385.791,399.21 388,399.21 C390.209,399.21 392,397.419 392,395.21 "/>
<path vector-effect="none" fill-rule="evenodd" d="M433.5,423.756 C433.5,421.546 431.709,419.756 429.5,419.756 C427.291,419.756 425.5,421.546 425.5,423.756 C425.5,425.965 427.291,427.756 429.5,427.756 C431.709,427.756 433.5,425.965 433.5,423.756 "/>
<path vector-effect="none" fill-rule="evenodd" d="M475,447.91 C475,445.701 473.209,443.91 471,443.91 C468.791,443.91 467,445.701 467,447.91 C467,450.119 468.791,451.91 471,451.91 C473.209,451.91 475,450.119 475,447.91 "/>
<path vector-effect="none" fill-rule="evenodd" d="M516.5,467.672 C516.5,465.463 514.709,463.672 512.5,463.672 C510.291,463.672 508.5,465.463 508.5,467.672 C508.5,469.881 510.291,471.672 512.5,471.672 C514.709,471.672 516.5,469.881 516.5,467.672 "/>
<path vector-effect="none" fill-rule="evenodd" d="M558,481.945 C558,479.736 556.209,477.945 554,477.945 C551.791,477.945 550,479.736 550,481.945 C550,484.154 551.791,485.945 554,485.945 C556.209,485.945 558,484.154 558,481.945 "/>
<path vector-effect="none" fill-rule="evenodd" d="M599.5,497.316 C599.5,495.107 597.709,493.316 595.5,493.316 C593.291,493.316 591.5,495.107 591.5,497.316 C591.5,499.525 593.291,501.316 595.5,501.316 C597.709,501.316 599.5,499.525 599.5,497.316 "/>
<path vector-effect="none" fill-rule="evenodd" d="M641,508.295 C641,506.086 639.209,504.295 637,504.295 C634.791,504.295 633,506.086 633,508.295 C633,510.504 634.791,512.295 637,512.295 C639.209,512.295 641,510.504 641,508.295 "/>
<path vector-effect="none" fill-rule="evenodd" d="M682.5,514.883 C682.5,512.673 680.709,510.883 678.5,510.883 C676.291,510.883 674.5,512.673 674.5,514.883 C674.5,517.092 676.291,518.883 678.5,518.883 C680.709,518.883 682.5,517.092 682.5,514.883 "/>
<path vector-effect="none" fill-rule="evenodd" d="M724,528.424 C724,526.214 722.209,524.424 720,524.424 C717.791,524.424 716,526.214 716,528.424 C716,530.633 717.791,532.424 720,532.424 C722.209,532.424 724,530.633 724,528.424 "/>
<path vector-effect="none" fill-rule="evenodd" d="M765.5,535.011 C765.5,532.802 763.709,531.011 761.5,531.011 C759.291,531.011 757.5,532.802 757.5,535.011 C757.5,537.22 759.291,539.011 761.5,539.011 C763.709,539.011 765.5,537.22 765.5,535.011 "/>
<path vector-effect="none" fill-rule="evenodd" d="M807,531.717 C807,529.508 805.209,527.717 803,527.717 C800.791,527.717 799,529.508 799,531.717 C799,533.926 800.791,535.717 803,535.717 C805.209,535.717 807,533.926 807,531.717 "/>
<path vector-effect="none" fill-rule="evenodd" d="M848.5,532.083 C848.5,529.874 846.709,528.083 844.5,528.083 C842.291,528.083 840.5,529.874 840.5,532.083 C840.5,534.292 842.291,536.083 844.5,536.083 C846.709,536.083 848.5,534.292 848.5,532.083 "/>
<path vector-effect="none" fill-rule="evenodd" d="M890,532.449 C890,530.24 888.209,528.449 886,528.449 C883.791,528.449 882,530.24 882,532.449 C882,534.658 883.791,536.449 886,536.449 C888.209,536.449 890,534.658 890,532.449 "/>
<path vector-effect="none" fill-rule="evenodd" d="M931.5,532.815 C931.5,530.606 929.709,528.815 927.5,528.815 C925.291,528.815 923.5,530.606 923.5,532.815 C923.5,535.024 925.291,536.815 927.5,536.815 C929.709,536.815 931.5,535.024 931.5,532.815 "/>
<path vector-effect="none" fill-rule="evenodd" d="M973,529.156 C973,526.946 971.209,525.156 969,525.156 C966.791,525.156 965,526.946 965,529.156 C965,531.365 966.791,533.156 969,533.156 C971.209,533.156 973,531.365 973,529.156 "/>
</g>

<g fill="none" stroke="#ff0000" stroke-opacity="1" stroke-width="3.33333" stroke-linecap="butt" stroke-linejoin="round" transform="matrix(0.749437,0,0,0.749559,-63.701,-30.9809)"
font-family="Sans Serif" font-size="9" font-weight="400" font-style="normal" 
>
<polyline fill="none" vector-effect="none" points="139,561.361 180.5,561.361 222,561.361 263.5,561.361 305,561.361 346.5,561.361 388,561.361 429.5,561.361 471,561.361 512.5,561.361 554,561.361 595.5,561.361 637,561.361 678.5,561.361 720,561.361 761.5,561.361 803,561.361 844.5,561.361 886,561.361 927.5,561.361 969,561.361 " />
</g>

<g fill="#121212" fill-opacity="1" stroke="none" transform="matrix(7.49437e-05,0,0,7.49559e-05,-63.701,-30.9809)"
font-family="Sans Serif" font-size="9" font-weight="400" font-style="normal" 
>
<path vector-effect="none" fill-rule="evenodd" d="M8.94e+06,600000 L8.94e+06,1e+06 L9.58e+06,1e+06 L9.58e+06,600000 L8.94e+06,600000"/>
</g>

<g fill="#ff0000" fill-opacity="1" stroke="#ff0000" stroke-opacity="1" stroke-dasharray="12,12" stroke-dashoffset="0" stroke-width="3.33333" stroke-linecap="butt" stroke-linejoin="round" transform="matrix(0.749437,0,0,0.749559,-63.701,-30.9809)"
font-family="Sans Serif" font-size="9" font-weight="400" font-style="normal" 
>
<polyline fill="none" vector-effect="none" points="897.973,70.2703 937.701,70.2703 " />
</g>

<g fill="none" stroke="#ff0000" stroke-opacity="1" stroke-width="3.33333" stroke-linecap="butt" stroke-linejoin="miter" stroke-miterlimit="2" transform="matrix(0.749437,0,0,0.749559,-63.701,-30.9809)"
font-family="Sans Serif" font-size="9" font-weight="400" font-style="normal" 
>
<path vector-effect="none" fill-rule="evenodd" d="M921.837,70.2703 C921.837,68.0611 920.046,66.2703 917.837,66.2703 C915.628,66.2703 913.837,68.0611 913.837,70.2703 C913.837,72.4794 915.628,74.2703 917.837,74.2703 C920.046,74.2703 921.837,72.4794 921.837,70.2703 "/>
</g>

<g fill="#ff0000" fill-opacity="1" stroke="#ff0000" stroke-opacity="1" stroke-width="3.33333" stroke-linecap="butt" stroke-linejoin="round" transform="matrix(0.749437,0,0,0.749559,-63.701,-30.9809)"
font-family="Sans Serif" font-size="9" font-weight="400" font-style="normal" 
>
<polyline fill="none" vector-effect="none" points="897.973,88.5405 937.701,88.5405 " />
</g>

<g fill="#d9d9d9" fill-opacity="1" stroke="none" transform="matrix(0.749437,0,0,0.749559,641.28,23.8495)"
font-family="Sans Serif" font-size="9" font-weight="400" font-style="normal" 
>
<path vector-effect="none" fill-rule="evenodd" d="M0.328125,2.32813 C0.296875,2.32813 0.273438,2.3151 0.257813,2.28906 C0.242188,2.26302 0.234375,2.23438 0.234375,2.20313 L2.07813,-5.20313 C2.18229,-5.60938 2.33594,-6 2.53906,-6.375 C2.74219,-6.75 2.9974,-7.09896 3.30469,-7.42188 C3.61198,-7.74479 3.94792,-8 4.3125,-8.1875 C4.67708,-8.375 5.06771,-8.46875 5.48438,-8.46875 C5.78646,-8.46875 6.05729,-8.40104 6.29688,-8.26563 C6.53646,-8.13021 6.72396,-7.94531 6.85938,-7.71094 C6.99479,-7.47656 7.0625,-7.21354 7.0625,-6.92188 C7.0625,-6.63021 7.00781,-6.35417 6.89844,-6.09375 C6.78906,-5.83333 6.63802,-5.59115 6.44531,-5.36719 C6.2526,-5.14323 6.04167,-4.96354 5.8125,-4.82813 C5.94792,-4.74479 6.0651,-4.63802 6.16406,-4.50781 C6.26302,-4.3776 6.34375,-4.24479 6.40625,-4.10938 C6.46875,-3.97396 6.51823,-3.82031 6.55469,-3.64844 C6.59115,-3.47656 6.60938,-3.31771 6.60938,-3.17188 C6.60938,-2.76563 6.52083,-2.36198 6.34375,-1.96094 C6.16667,-1.5599 5.92708,-1.19792 5.625,-0.875 C5.32292,-0.552083 4.97656,-0.294271 4.58594,-0.101563 C4.19531,0.0911458 3.79688,0.1875 3.39063,0.1875 C2.94271,0.1875 2.53906,0.0651042 2.17969,-0.179688 C1.82031,-0.424479 1.57292,-0.760417 1.4375,-1.1875 L0.5625,2.25 C0.5625,2.30208 0.53125,2.32813 0.46875,2.32813 L0.328125,2.32813 M3.40625,-0.140625 C3.77083,-0.140625 4.09896,-0.257813 4.39063,-0.492188 C4.68229,-0.726563 4.92188,-1.02344 5.10938,-1.38281 C5.29688,-1.74219 5.4401,-2.1224 5.53906,-2.52344 C5.63802,-2.92448 5.6875,-3.29167 5.6875,-3.625 C5.6875,-4.03125 5.57292,-4.34896 5.34375,-4.57813 C5.0625,-4.48438 4.79167,-4.4375 4.53125,-4.4375 C3.90625,-4.4375 3.59375,-4.54167 3.59375,-4.75 C3.59375,-5.03125 3.95313,-5.17188 4.67188,-5.17188 C4.93229,-5.17188 5.16667,-5.13021 5.375,-5.04688 C5.55208,-5.18229 5.71094,-5.38021 5.85156,-5.64063 C5.99219,-5.90104 6.09896,-6.17188 6.17188,-6.45313 C6.24479,-6.73438 6.28125,-6.99479 6.28125,-7.23438 C6.28125,-7.49479 6.21094,-7.71354 6.07031,-7.89063 C5.92969,-8.06771 5.72917,-8.15625 5.46875,-8.15625 C4.97917,-8.15625 4.52344,-8.00521 4.10156,-7.70313 C3.67969,-7.40104 3.32552,-7.02083 3.03906,-6.5625 C2.7526,-6.10417 2.54688,-5.63021 2.42188,-5.14063 L1.75,-2.48438 C1.70833,-2.29688 1.68229,-2.08854 1.67188,-1.85938 C1.67188,-1.35938 1.83594,-0.947917 2.16406,-0.625 C2.49219,-0.302083 2.90625,-0.140625 3.40625,-0.140625 M3.95313,-4.78125 C4.06771,-4.75 4.26563,-4.73438 4.54688,-4.73438 C4.68229,-4.73438 4.81771,-4.76042 4.95313,-4.8125 C4.95313,-4.82292 4.9375,-4.82813 4.90625,-4.82813 C4.82292,-4.84896 4.73438,-4.85938 4.64063,-4.85938 C4.27604,-4.85938 4.04688,-4.83333 3.95313,-4.78125 "/>
</g>

<g fill="#d9d9d9" fill-opacity="1" stroke="none" transform="matrix(0.749437,0,0,0.749559,646.367,25.1987)"
font-family="Sans Serif" font-size="9" font-weight="400" font-style="normal" 
>
<path vector-effect="none" fill-rule="evenodd" d="M0.75,0 L0.75,-0.28125 C1.41667,-0.28125 1.75,-0.364583 1.75,-0.53125 L1.75,-4.73438 C1.46875,-4.59896 1.11979,-4.53125 0.703125,-4.53125 L0.703125,-4.8125 C1.34896,-4.8125 1.83854,-4.98438 2.17188,-5.32813 L2.29688,-5.32813 C2.30729,-5.32813 2.32292,-5.32031 2.34375,-5.30469 C2.36458,-5.28906 2.375,-5.27604 2.375,-5.26563 L2.375,-0.53125 C2.375,-0.364583 2.70833,-0.28125 3.375,-0.28125 L3.375,0 L0.75,0"/>
</g>

<g fill="#d9d9d9" fill-opacity="1" stroke="none" transform="matrix(0.749437,0,0,0.749559,641.28,37.5442)"
font-family="Sans Serif" font-size="9" font-weight="400" font-style="normal" 
>
<path vector-effect="none" fill-rule="evenodd" d="M0.328125,2.32813 C0.296875,2.32813 0.273438,2.3151 0.257813,2.28906 C0.242188,2.26302 0.234375,2.23438 0.234375,2.20313 L2.07813,-5.20313 C2.18229,-5.60938 2.33594,-6 2.53906,-6.375 C2.74219,-6.75 2.9974,-7.09896 3.30469,-7.42188 C3.61198,-7.74479 3.94792,-8 4.3125,-8.1875 C4.67708,-8.375 5.06771,-8.46875 5.48438,-8.46875 C5.78646,-8.46875 6.05729,-8.40104 6.29688,-8.26563 C6.53646,-8.13021 6.72396,-7.94531 6.85938,-7.71094 C6.99479,-7.47656 7.0625,-7.21354 7.0625,-6.92188 C7.0625,-6.63021 7.00781,-6.35417 6.89844,-6.09375 C6.78906,-5.83333 6.63802,-5.59115 6.44531,-5.36719 C6.2526,-5.14323 6.04167,-4.96354 5.8125,-4.82813 C5.94792,-4.74479 6.0651,-4.63802 6.16406,-4.50781 C6.26302,-4.3776 6.34375,-4.24479 6.40625,-4.10938 C6.46875,-3.97396 6.51823,-3.82031 6.55469,-3.64844 C6.59115,-3.47656 6.60938,-3.31771 6.60938,-3.17188 C6.60938,-2.76563 6.52083,-2.36198 6.34375,-1.96094 C6.16667,-1.5599 5.92708,-1.19792 5.625,-0.875 C5.32292,-0.552083 4.97656,-0.294271 4.58594,-0.101563 C4.19531,0.0911458 3.79688,0.1875 3.39063,0.1875 C2.94271,0.1875 2.53906,0.0651042 2.17969,-0.179688 C1.82031,-0.424479 1.57292,-0.760417 1.4375,-1.1875 L0.5625,2.25 C0.5625,2.30208 0.53125,2.32813 0.46875,2.32813 L0.328125,2.32813 M3.40625,-0.140625 C3.77083,-0.140625 4.09896,-0.257813 4.39063,-0.492188 C4.68229,-0.726563 4.92188,-1.02344 5.10938,-1.38281 C5.29688,-1.74219 5.4401,-2.1224 5.53906,-2.52344 C5.63802,-2.92448 5.6875,-3.29167 5.6875,-3.625 C5.6875,-4.03125 5.57292,-4.34896 5.34375,-4.57813 C5.0625,-4.48438 4.79167,-4.4375 4.53125,-4.4375 C3.90625,-4.4375 3.59375,-4.54167 3.59375,-4.75 C3.59375,-5.03125 3.95313,-5.17188 4.67188,-5.17188 C4.93229,-5.17188 5.16667,-5.13021 5.375,-5.04688 C5.55208,-5.18229 5.71094,-5.38021 5.85156,-5.64063 C5.99219,-5.90104 6.09896,-6.17188 6.17188,-6.45313 C6.24479,-6.73438 6.28125,-6.99479 6.28125,-7.23438 C6.28125,-7.49479 6.21094,-7.71354 6.07031,-7.89063 C5.92969,-8.06771 5.72917,-8.15625 5.46875,-8.15625 C4.97917,-8.15625 4.52344,-8.00521 4.10156,-7.70313 C3.67969,-7.40104 3.32552,-7.02083 3.03906,-6.5625 C2.7526,-6.10417 2.54688,-5.63021 2.42188,-5.14063 L1.75,-2.48438 C1.70833,-2.29688 1.68229,-2.08854 1.67188,-1.85938 C1.67188,-1.35938 1.83594,-0.947917 2.16406,-0.625 C2.49219,-0.302083 2.90625,-0.140625 3.40625,-0.140625 M3.95313,-4.78125 C4.06771,-4.75 4.26563,-4.73438 4.54688,-4.73438 C4.68229,-4.73438 4.81771,-4.76042 4.95313,-4.8125 C4.95313,-4.82292 4.9375,-4.82813 4.90625,-4.82813 C4.82292,-4.84896 4.73438,-4.85938 4.64063,-4.85938 C4.27604,-4.85938 4.04688,-4.83333 3.95313,-4.78125 "/>
</g>

<g fill="#d9d9d9" fill-opacity="1" stroke="none" transform="matrix(0.749437,0,0,0.749559,646.841,34.2801)"
font-family="Sans Serif" font-size="9" font-weight="400" font-style="normal" 
>
<path vector-effect="none" fill-rule="evenodd" d="M0.75,-1.01563 C0.697917,-1.01563 0.645833,-1.04167 0.59375,-1.09375 C0.541667,-1.14583 0.515625,-1.20313 0.515625,-1.26563 C0.515625,-1.34896 0.557292,-1.41146 0.640625,-1.45313 L1.78125,-2 L0.640625,-2.54688 C0.557292,-2.57813 0.515625,-2.64063 0.515625,-2.73438 C0.515625,-2.79688 0.541667,-2.85417 0.59375,-2.90625 C0.645833,-2.95833 0.697917,-2.98438 0.75,-2.98438 C0.791667,-2.98438 0.828125,-2.96875 0.859375,-2.9375 L1.89063,-2.1875 L1.76563,-3.5 C1.76563,-3.5625 1.78906,-3.61458 1.83594,-3.65625 C1.88281,-3.69792 1.9375,-3.71875 2,-3.71875 C2.0625,-3.71875 2.11458,-3.70052 2.15625,-3.66406 C2.19792,-3.6276 2.21875,-3.57813 2.21875,-3.51563 L2.21875,-3.5 L2.10938,-2.1875 L3.125,-2.9375 C3.16667,-2.96875 3.20313,-2.98438 3.23438,-2.98438 C3.30729,-2.98438 3.36458,-2.95833 3.40625,-2.90625 C3.44792,-2.85417 3.46875,-2.79688 3.46875,-2.73438 C3.46875,-2.64063 3.43229,-2.57813 3.35938,-2.54688 L2.20313,-2 L3.35938,-1.45313 C3.43229,-1.41146 3.46875,-1.34896 3.46875,-1.26563 C3.46875,-1.20313 3.44792,-1.14583 3.40625,-1.09375 C3.36458,-1.04167 3.30729,-1.01563 3.23438,-1.01563 C3.20313,-1.01563 3.16667,-1.03125 3.125,-1.0625 L2.10938,-1.79688 L2.21875,-0.5 L2.21875,-0.484375 C2.21875,-0.421875 2.19792,-0.372396 2.15625,-0.335938 C2.11458,-0.299479 2.0625,-0.28125 2,-0.28125 C1.9375,-0.28125 1.88281,-0.302083 1.83594,-0.34375 C1.78906,-0.385417 1.76563,-0.4375 1.76563,-0.5 L1.89063,-1.79688 L0.859375,-1.0625 C0.828125,-1.03125 0.791667,-1.01563 0.75,-1.01563 "/>
</g>

<g fill="#d9d9d9" fill-opacity="1" stroke="none" transform="matrix(0.749437,0,0,0.749559,646.367,39.7768)"
font-family="Sans Serif" font-size="9" font-weight="400" font-style="normal" 
>
<path vector-effect="none" fill-rule="evenodd" d="M0.75,0 L0.75,-0.28125 C1.41667,-0.28125 1.75,-0.364583 1.75,-0.53125 L1.75,-4.73438 C1.46875,-4.59896 1.11979,-4.53125 0.703125,-4.53125 L0.703125,-4.8125 C1.34896,-4.8125 1.83854,-4.98438 2.17188,-5.32813 L2.29688,-5.32813 C2.30729,-5.32813 2.32292,-5.32031 2.34375,-5.30469 C2.36458,-5.28906 2.375,-5.27604 2.375,-5.26563 L2.375,-0.53125 C2.375,-0.364583 2.70833,-0.28125 3.375,-0.28125 L3.375,0 L0.75,0"/>
</g>

<g fill="none" stroke="#d9d9d9" stroke-opacity="1" stroke-width="0.666667" stroke-linecap="butt" stroke-linejoin="miter" stroke-miterlimit="2" transform="matrix(0.749437,0,0,0.749559,-63.701,-30.9809)"
font-family="Sans Serif" font-size="9" font-weight="400" font-style="normal" 
>
<path vector-effect="none" fill-rule="evenodd" d="M894,100 L894,60 L958,60 L958,100 L894,100"/>
</g>
</g>
</svg>
